<?xml version="1.0" encoding="UTF-8"?>
<svg id="Layer_2" data-name="Layer 2" xmlns="http://www.w3.org/2000/svg" viewBox="0 0 195.29 187.05">
  <defs>
    <style>
      .cls-1 {
        fill: #FF0000;
        stroke-width: 0px;
      }
    </style>
  </defs>
  <g id="Layer_1-2" data-name="Layer 1">
    <path class="cls-1" d="M109.68,7.48l19.77,40.06c1.96,3.96,5.74,6.71,10.11,7.34l44.21,6.42c11.01,1.6,15.41,15.13,7.44,22.9l-31.99,31.19c-3.16,3.08-4.61,7.53-3.86,11.88l7.55,44.03c1.88,10.97-9.63,19.33-19.48,14.15l-39.55-20.79c-3.91-2.06-8.58-2.06-12.5,0l-39.55,20.79c-9.85,5.18-21.36-3.19-19.48-14.15l7.55-44.03c.75-4.36-.7-8.8-3.86-11.88l-31.99-31.19c-7.97-7.77-3.57-21.3,7.44-22.9l44.21-6.42c4.37-.64,8.15-3.38,10.11-7.34L85.6,7.48c4.92-9.98,19.15-9.98,24.08,0Z"/>
  </g>
</svg>