<?xml version="1.0" standalone="no"?>
<!DOCTYPE svg PUBLIC "-//W3C//DTD SVG 20010904//EN"
 "http://www.w3.org/TR/2001/REC-SVG-20010904/DTD/svg10.dtd">
<svg version="1.0" xmlns="http://www.w3.org/2000/svg"
 width="260.000000pt" height="260.000000pt" viewBox="0 0 260.000000 260.000000"
 preserveAspectRatio="xMidYMid meet">
<metadata>
Created by potrace 1.14, written by Peter Selinger 2001-2017
</metadata>
<g transform="translate(0.000000,260.000000) scale(0.100000,-0.100000)"
fill="#000000" stroke="none">
<path d="M1215 2421 c-22 -10 -52 -31 -67 -47 -15 -16 -81 -151 -149 -304 -67
-151 -123 -276 -123 -277 -3 -4 -60 -11 -131 -18 -38 -3 -81 -8 -95 -10 -14
-2 -56 -7 -95 -10 -38 -3 -81 -8 -95 -10 -14 -2 -56 -7 -95 -10 -107 -9 -145
-22 -191 -69 -64 -63 -81 -153 -45 -231 17 -37 52 -74 177 -185 85 -76 204
-183 255 -230 l48 -45 -60 -275 c-33 -151 -61 -301 -61 -332 -1 -115 81 -200
201 -207 42 -3 133 33 201 79 14 9 50 31 80 47 30 17 114 65 186 107 72 42
137 76 143 76 7 0 130 -68 273 -150 216 -124 270 -151 313 -156 111 -13 220
74 229 183 1 21 -10 98 -26 173 -16 74 -33 155 -38 180 -5 25 -18 86 -29 135
-11 50 -22 102 -25 117 -4 23 7 36 77 100 44 40 91 82 103 93 12 11 50 45 85
75 139 121 207 194 218 235 22 81 9 140 -43 202 -38 45 -99 70 -188 78 -43 3
-90 8 -105 10 -16 1 -59 6 -96 10 -37 3 -76 8 -85 10 -9 1 -53 6 -97 10 -98 8
-136 13 -140 17 -2 2 -15 31 -29 65 -14 35 -37 86 -50 115 -13 29 -56 125 -96
213 -39 88 -83 173 -98 189 -37 39 -98 66 -152 66 -25 0 -63 -9 -85 -19z m150
-313 c32 -73 71 -160 86 -193 15 -33 49 -109 76 -169 29 -65 59 -117 74 -128
28 -20 61 -26 244 -43 33 -4 76 -8 95 -10 19 -2 62 -7 95 -10 33 -3 76 -8 95
-10 19 -3 62 -7 95 -11 33 -3 62 -8 65 -10 2 -3 -8 -15 -22 -27 -15 -13 -53
-47 -85 -77 -33 -30 -93 -84 -133 -120 -41 -36 -81 -72 -90 -80 -9 -8 -50 -46
-92 -83 -49 -44 -79 -78 -83 -96 -5 -23 12 -121 51 -296 2 -11 6 -31 9 -45 3
-14 7 -36 10 -50 3 -14 18 -83 33 -153 16 -70 26 -130 22 -132 -4 -2 -90 44
-191 102 -101 58 -197 113 -212 122 -16 9 -36 21 -45 26 -116 69 -135 77 -171
72 -23 -3 -111 -47 -227 -115 -330 -192 -366 -212 -373 -207 -4 2 10 84 31
182 21 98 40 187 43 198 12 59 24 118 39 188 10 44 14 92 11 107 -4 20 -56 73
-183 186 -97 87 -197 177 -222 200 -25 23 -58 53 -75 67 -16 14 -28 28 -25 30
3 3 34 8 70 12 36 3 72 8 80 10 8 2 51 7 94 10 44 3 93 8 110 10 17 2 58 6 91
9 80 8 153 17 190 22 63 10 78 31 179 265 22 51 67 152 100 224 13 28 33 74
46 103 12 28 26 52 29 52 4 0 34 -60 66 -132z"/>
</g>
</svg>
