<svg width="806" height="256" viewBox="0 0 806 256" fill="none" xmlns="http://www.w3.org/2000/svg">
<path fill-rule="evenodd" clip-rule="evenodd" d="M33.9902 180.086C31.3535 187.117 26.7148 204.598 20.0742 232.527C19.1953 236.531 18.4629 239.852 17.877 242.488C17.5319 244.351 17.1869 246.092 16.8419 247.712C16.6987 248.384 16.5554 249.036 16.4121 249.666L50.1035 255.965L69.5859 178.035L101.959 112.264L98.0039 79.5977C81.8906 75.3008 60.4062 71.834 33.5508 69.1973L21.0996 68.0254C16.8027 67.6348 12.2617 67.1953 7.47656 66.707L0.591797 100.252C1.26848 100.286 1.94207 100.32 2.61257 100.354C29.2292 101.718 50.9677 103.686 67.8281 106.258L68.707 110.506L46.7344 150.789C44.9766 154.109 43.0723 158.064 41.0215 162.654C38.9707 167.146 36.627 172.957 33.9902 180.086ZM48.5019 151.725C48.5 151.728 48.4981 151.732 48.4961 151.736C46.7663 155.004 44.8835 158.913 42.8475 163.47L42.8442 163.478L42.8409 163.485C40.8184 167.915 38.4937 173.675 35.866 180.78L35.8629 180.788C33.2804 187.675 28.6724 205.011 22.024 232.973C21.1504 236.953 20.4214 240.258 19.837 242.887C19.4949 244.733 19.1521 246.464 18.8085 248.079L48.62 253.653L67.6974 177.343L99.902 111.914L96.1817 81.1865C80.3655 77.087 59.4374 73.7486 33.3594 71.1881C33.358 71.188 33.3567 71.1878 33.3554 71.1877L20.9185 70.0172C20.9168 70.017 20.9151 70.0169 20.9134 70.0167C17.1522 69.6748 13.2052 69.2956 9.07245 68.8791L3.0193 98.3721C29.5324 99.7373 51.2425 101.705 68.1297 104.281L69.5048 104.49L70.8142 110.819L48.5019 151.725ZM212.357 135.716L211.073 225.18L239.652 220.417L244.103 141.289L244.104 141.276C244.49 135.687 244.686 126.373 244.686 113.289V101.863C244.686 97.9904 244.589 94.1671 244.395 90.3934C244.242 87.415 241.985 83.4927 236.693 78.5832C233.985 76.1406 231.132 75.0059 228.082 75.0059H196.322L170.347 98.0396L168.702 3.3884L137.619 9.89123C137.151 34.0003 136.918 52.2527 136.918 64.6562C136.918 83.465 137.503 105.797 138.674 131.656L138.674 131.665C139.442 150.577 139.974 178.322 140.27 214.887L168.114 213.348L170.298 110.394L171.423 109.867C174.637 108.36 178.858 106.724 184.06 104.957C187.601 103.673 192.406 103.086 198.346 103.086H210.269L210.567 104.728C211.773 111.362 212.357 121.719 212.357 135.701V135.716ZM184.723 106.844C179.547 108.602 175.396 110.213 172.271 111.678L170.074 215.242L138.287 217C138.282 216.33 138.277 215.662 138.271 214.998C137.975 178.392 137.443 150.641 136.676 131.746C135.504 105.867 134.918 83.5039 134.918 64.6562C134.918 51.9609 135.162 33.1621 135.65 8.25977L170.66 0.935547L172.271 93.6602L195.562 73.0059H228.082C231.695 73.0059 235.016 74.373 238.043 77.1074C243.414 82.0879 246.197 86.4824 246.393 90.291C246.588 94.0996 246.686 97.957 246.686 101.863V113.289C246.686 126.375 246.49 135.75 246.1 141.414L241.559 222.127L209.039 227.547L210.357 135.701C210.357 121.736 209.771 111.531 208.6 105.086H198.346C192.486 105.086 187.945 105.672 184.723 106.844ZM401.959 133.357C384.283 143.514 367.682 150.984 352.154 155.77C350.299 166.316 349.371 177.547 349.371 189.461C349.371 196.004 349.811 202.4 350.689 208.65C376.666 218.416 409.039 224.275 447.809 226.229L453.229 192.098C452.621 192.077 451.95 192.05 451.216 192.016C445.112 191.739 434.65 191.034 419.83 189.9C403.326 188.631 390.729 186.873 382.037 184.627L382.916 173.494C413.678 165.291 435.113 155.867 447.223 145.223C449.566 143.27 450.738 133.602 450.738 116.219C450.738 109.383 449.859 102.693 448.102 96.1504L447.369 93.2207C447.076 92.0488 446.588 90.877 445.904 89.7051C445.221 88.4355 444.244 87.2637 442.975 86.1895C441.803 85.0176 439.215 83.748 435.211 82.3809C431.207 80.916 425.201 79.0605 417.193 76.8145C409.283 74.4707 391.119 71.1016 362.701 66.707L352.74 99.666C353.414 99.7509 354.085 99.8366 354.752 99.923C379.398 103.116 399.138 107.327 413.971 112.557L414.557 125.154C411.236 127.693 407.037 130.428 401.959 133.357ZM355.338 97.9824C379.902 101.179 399.685 105.399 414.636 110.67L415.906 111.118L416.603 126.107L415.772 126.743C412.361 129.351 408.084 132.133 402.958 135.09L402.955 135.092C385.624 145.05 369.277 152.466 353.918 157.314C352.222 167.388 351.371 178.102 351.371 189.461C351.371 195.503 351.751 201.414 352.51 207.194C377.643 216.468 408.828 222.132 446.116 224.138L450.901 194.004C444.725 193.718 434.308 193.013 419.678 191.895C403.137 190.622 390.4 188.854 381.537 186.563L379.911 186.143L381.034 171.926L382.401 171.562C413.1 163.375 434.156 154.046 445.902 143.721L445.922 143.703L445.942 143.686C446.052 143.595 446.427 143.117 446.846 141.732C447.239 140.436 447.588 138.628 447.874 136.266C448.445 131.551 448.738 124.882 448.738 116.219C448.738 109.556 447.882 103.042 446.17 96.6693L446.166 96.6524L445.429 93.7058C445.187 92.7383 444.777 91.7412 444.177 90.7128L444.16 90.6833L444.143 90.6533C443.595 89.6354 442.79 88.6532 441.683 87.7162L441.619 87.6625L441.56 87.6037C441.204 87.2474 440.494 86.7524 439.274 86.154C438.082 85.5694 436.52 84.9412 434.565 84.2736L434.544 84.2666L434.524 84.2591C430.594 82.8215 424.649 80.9827 416.653 78.7401L416.639 78.7362L416.625 78.732C409.027 76.4809 391.577 73.2192 364.113 68.9498L355.338 97.9824ZM493.072 189.754L490.143 217.586C514.459 221.785 544.537 224.471 580.377 225.643L582.721 194.148L552.838 192.684L557.525 121.932C557.916 115.486 558.111 105.477 558.111 91.9023C558.111 82.1367 557.33 73.4453 555.768 65.8281L521.637 70.3691V91.6094L492.486 85.8965L485.895 119.441C486.541 119.545 487.201 119.644 487.874 119.74C496.765 121.006 508.02 121.639 521.637 121.639L523.102 191.219L493.072 189.754ZM488.26 117.775C497.005 119.012 508.121 119.639 521.637 119.639H523.595L525.146 193.321L494.863 191.844L492.328 215.929C515.758 219.854 544.484 222.408 578.525 223.579L580.574 196.046L550.708 194.582L555.529 121.811C555.529 121.81 555.529 121.809 555.529 121.809C555.916 115.427 556.111 105.469 556.111 91.9023C556.111 83.02 555.458 75.0759 554.164 68.0591L523.637 72.1207V94.0394L494.063 88.2436L488.26 117.775ZM648.492 73.0059L617.291 76.9609L619.928 218.172L652.008 216.121L655.963 113.729L665.924 110.213C671.686 108.064 678.668 106.99 686.871 106.99C690.094 106.99 692.291 107.186 693.463 107.576L694.049 219.93L725.543 217.293L730.084 114.021L740.338 110.213C746.1 108.064 752.789 106.99 760.406 106.99C763.629 106.99 765.826 107.186 766.998 107.576L767.584 219.93L800.25 217.293L805.377 89.5586C805.377 87.3125 804.693 85.3105 803.326 83.5527C802.057 81.7949 799.664 79.5977 796.148 76.9609C792.73 74.3242 790.387 73.0059 789.117 73.0059H753.814L728.619 94.832C728.52 94.0846 728.37 93.3331 728.167 92.5775C726.967 88.1009 723.944 83.4813 719.098 78.7188C715.387 74.9102 711.822 73.0059 708.404 73.0059H679.4L653.619 95.2715L648.492 73.0059ZM680.144 75.0059L652.415 98.9542L646.949 75.2175L619.324 78.7192L621.888 216.042L650.079 214.24L654.017 112.294L665.225 108.339C665.23 108.337 665.236 108.335 665.241 108.333C671.284 106.083 678.512 104.99 686.871 104.99C690.07 104.99 692.576 105.172 694.095 105.679L695.455 106.132L696.038 217.756L723.622 215.447L728.144 112.608L739.639 108.339C745.671 106.09 752.605 104.99 760.406 104.99C763.606 104.99 766.111 105.172 767.63 105.679L768.991 106.132L769.573 217.763L798.323 215.442L803.377 89.52C803.369 87.7307 802.831 86.1741 801.747 84.7806L801.726 84.7525L801.705 84.7237C800.621 83.2229 798.433 81.1742 794.948 78.5609L794.938 78.5528L794.927 78.5445C793.254 77.2544 791.9 76.3301 790.847 75.7378C790.321 75.4421 789.904 75.2482 789.585 75.1319C789.27 75.0167 789.128 75.0067 789.118 75.0059L754.56 75.0059L727.122 98.7746L726.636 95.0939C726.035 90.5381 723.199 85.5537 717.696 80.1452L717.68 80.13L717.665 80.1145C714.126 76.4823 711.047 75.0059 708.404 75.0059H680.144Z" fill="white"/>
</svg>
