<svg width="806" height="256" viewBox="0 0 806 256" fill="none" xmlns="http://www.w3.org/2000/svg">
<path d="M16.4121 249.666C16.9004 247.518 17.3887 245.125 17.877 242.488C18.4629 239.852 19.1953 236.531 20.0742 232.527C26.7148 204.598 31.3535 187.117 33.9902 180.086C36.627 172.957 38.9707 167.146 41.0215 162.654C43.0723 158.064 44.9766 154.109 46.7344 150.789L68.707 110.506L67.8281 106.258C50.543 103.621 28.1309 101.619 0.591797 100.252L7.47656 66.707C12.2617 67.1953 16.8027 67.6348 21.0996 68.0254L33.5508 69.1973C60.4062 71.834 81.8906 75.3008 98.0039 79.5977L101.959 112.264L69.5859 178.035L50.1035 255.965L16.4121 249.666Z" fill="white"/>
<path d="M210.357 135.701C210.357 121.736 209.771 111.531 208.6 105.086H198.346C192.486 105.086 187.945 105.672 184.723 106.844C179.547 108.602 175.396 110.213 172.271 111.678L170.074 215.242L138.287 217C137.994 179.402 137.457 150.984 136.676 131.746C135.504 105.867 134.918 83.5039 134.918 64.6562C134.918 51.9609 135.162 33.1621 135.65 8.25977L170.66 0.935547L172.271 93.6602L195.562 73.0059H228.082C231.695 73.0059 235.016 74.373 238.043 77.1074C243.414 82.0879 246.197 86.4824 246.393 90.291C246.588 94.0996 246.686 97.957 246.686 101.863V113.289C246.686 126.375 246.49 135.75 246.1 141.414L241.559 222.127L209.039 227.547L210.357 135.701Z" fill="white"/>
<path d="M447.809 226.229C409.039 224.275 376.666 218.416 350.689 208.65C349.811 202.4 349.371 196.004 349.371 189.461C349.371 177.547 350.299 166.316 352.154 155.77C367.682 150.984 384.283 143.514 401.959 133.357C407.037 130.428 411.236 127.693 414.557 125.154L413.971 112.557C398.736 107.186 378.326 102.889 352.74 99.666L362.701 66.707C391.119 71.1016 409.283 74.4707 417.193 76.8145C425.201 79.0605 431.207 80.916 435.211 82.3809C439.215 83.748 441.803 85.0176 442.975 86.1895C444.244 87.2637 445.221 88.4355 445.904 89.7051C446.588 90.877 447.076 92.0488 447.369 93.2207L448.102 96.1504C449.859 102.693 450.738 109.383 450.738 116.219C450.738 133.602 449.566 143.27 447.223 145.223C435.113 155.867 413.678 165.291 382.916 173.494L382.037 184.627C390.729 186.873 403.326 188.631 419.83 189.9C436.432 191.17 447.564 191.902 453.229 192.098L447.809 226.229Z" fill="white"/>
<path d="M580.377 225.643C544.537 224.471 514.459 221.785 490.143 217.586L493.072 189.754L523.102 191.219L521.637 121.639C506.988 121.639 495.074 120.906 485.895 119.441L492.486 85.8965L521.637 91.6094V70.3691L555.768 65.8281C557.33 73.4453 558.111 82.1367 558.111 91.9023C558.111 105.477 557.916 115.486 557.525 121.932L552.838 192.684L582.721 194.148L580.377 225.643Z" fill="white"/>
<path d="M617.291 76.9609L648.492 73.0059L653.619 95.2715L679.4 73.0059H708.404C711.822 73.0059 715.387 74.9102 719.098 78.7188C724.762 84.2852 727.936 89.6562 728.619 94.832L753.814 73.0059H789.117C790.387 73.0059 792.73 74.3242 796.148 76.9609C799.664 79.5977 802.057 81.7949 803.326 83.5527C804.693 85.3105 805.377 87.3125 805.377 89.5586L800.25 217.293L767.584 219.93L766.998 107.576C765.826 107.186 763.629 106.99 760.406 106.99C752.789 106.99 746.1 108.064 740.338 110.213L730.084 114.021L725.543 217.293L694.049 219.93L693.463 107.576C692.291 107.186 690.094 106.99 686.871 106.99C678.668 106.99 671.686 108.064 665.924 110.213L655.963 113.729L652.008 216.121L619.928 218.172L617.291 76.9609Z" fill="white"/>
</svg>
